<svg width="64" height="64" viewBox="0 0 64 64" xmlns="http://www.w3.org/2000/svg" role="img" aria-label="Hild Media">
  <rect width="64" height="64" rx="8" fill="#000"/>
  <svg x="15" y="13" width="36" height="38" viewBox="0 0 100 97" aria-hidden="true">
    <g transform="matrix(1,0,0,1,-1174.39,-632.553)">
      <g transform="matrix(0.471531,0,0,0.500657,827.885,292.193)">
        <path d="M823.911,725.529C840.531,725.529 853.861,731.026 863.901,742.019C873.942,753.011 878.962,768.116 878.962,787.332L878.962,871.986L834.818,871.986L834.818,793.304C834.818,783.61 832.308,776.079 827.287,770.713C822.267,765.346 815.515,762.663 807.033,762.663C798.55,762.663 791.798,765.346 786.778,770.713C781.758,776.079 779.247,783.61 779.247,793.304L779.247,871.986L734.843,871.986L734.843,679.827L779.247,679.827L779.247,746.563C783.748,740.158 789.894,735.051 797.684,731.242C805.474,727.434 814.217,725.529 823.911,725.529Z" fill="#fff"/>
        <g transform="matrix(1.00378,0,0,1.03179,-13.8042,-29.8642)">
          <path d="M930.638,874.063C922.847,874.063 916.485,871.769 911.552,867.182C906.618,862.594 904.151,856.925 904.151,850.173C904.151,843.248 906.618,837.449 911.552,832.775C916.485,828.101 922.847,825.764 930.638,825.764C938.255,825.764 944.53,828.101 949.464,832.775C954.398,837.449 956.865,843.248 956.865,850.173C956.865,856.925 954.398,862.594 949.464,867.182C944.53,871.769 938.255,874.063 930.638,874.063Z" fill="#fff"/>
        </g>
      </g>
    </g>
  </svg>
</svg>
